# xmcd CD database file
#
# Track frame offsets:
#	150
#	2365
#	20995
#	41100
#	63040
#	83412
#	104485
#	119497
#	138697
#	158155
#	179312
#	202155
#	219052
#
# Disc length: 3263 seconds
#
# Revision: 3
# Processed by: cddbd v1.5.2PL0 Copyright (c) Steve Scherf et al.
# Submitted via: jetAudio 5
#
DISCID=ae0cbd0d
DTITLE=Beverley Knight - Prodigal Sista
DYEAR=1998
DGENRE=R&B/Soul
TTITLE0=Wake Up Call
TTITLE1=Made It Back
TTITLE2=Rewind (Find a Way)
TTITLE3=Damn
TTITLE4=A.W.O.L
TTITLE5=Sista, Sista
TTITLE6=Strong Hand
TTITLE7=Greatest Day
TTITLE8=That's Alright
TTITLE9=Tomorrow
TTITLE10=Send Me, Move Me, Love Me
TTITLE11=The Need Of You
TTITLE12=Good Morning World
EXTD=
EXTT0=
EXTT1=
EXTT2=
EXTT3=
EXTT4=
EXTT5=
EXTT6=
EXTT7=
EXTT8=
EXTT9=
EXTT10=
EXTT11=
EXTT12=
PLAYORDER=
